<svg xmlns="http://www.w3.org/2000/svg" width="800" height="200" viewBox="0 0 800 200" fill="none">
  <defs>
    <linearGradient id="logoGrad" x1="0" y1="0" x2="200" y2="200">
      <stop offset="0%" stop-color="#00ff88"/>
      <stop offset="50%" stop-color="#00e6ff"/>
      <stop offset="100%" stop-color="#8c64ff"/>
    </linearGradient>
    <linearGradient id="textGrad" x1="0" y1="0" x2="600" y2="0">
      <stop offset="0%" stop-color="#00ff88"/>
      <stop offset="50%" stop-color="#00e6ff"/>
      <stop offset="100%" stop-color="#8c64ff"/>
    </linearGradient>
  </defs>
  <!-- 배경 (어두운) -->
  <rect width="800" height="200" rx="16" fill="#0a0c12"/>
  <!-- 로고 심볼 -->
  <g transform="translate(30, 20) scale(5)">
    <path d="M16 2L28 9V23L16 30L4 23V9L16 2Z" stroke="url(#logoGrad)" stroke-width="1.5" fill="none"/>
    <path d="M16 6L24 10.5V21.5L16 26L8 21.5V10.5L16 6Z" stroke="url(#logoGrad)" stroke-width="1" fill="none" opacity="0.5"/>
    <circle cx="16" cy="16" r="4" fill="url(#logoGrad)" opacity="0.8"/>
    <circle cx="16" cy="16" r="2" fill="#0a0c12"/>
    <line x1="16" y1="12" x2="16" y2="6" stroke="url(#logoGrad)" stroke-width="1" opacity="0.6"/>
    <line x1="19.5" y1="14" x2="24" y2="10.5" stroke="url(#logoGrad)" stroke-width="1" opacity="0.6"/>
    <line x1="19.5" y1="18" x2="24" y2="21.5" stroke="url(#logoGrad)" stroke-width="1" opacity="0.6"/>
    <line x1="16" y1="20" x2="16" y2="26" stroke="url(#logoGrad)" stroke-width="1" opacity="0.6"/>
    <line x1="12.5" y1="18" x2="8" y2="21.5" stroke="url(#logoGrad)" stroke-width="1" opacity="0.6"/>
    <line x1="12.5" y1="14" x2="8" y2="10.5" stroke="url(#logoGrad)" stroke-width="1" opacity="0.6"/>
  </g>
  <!-- 텍스트 -->
  <text x="230" y="105" font-family="Arial, Helvetica, sans-serif" font-size="64" font-weight="bold" fill="url(#textGrad)" letter-spacing="8">CORTHEX</text>
  <text x="230" y="155" font-family="Arial, Helvetica, sans-serif" font-size="28" fill="#94a3b8" letter-spacing="16">H Q</text>
</svg>
