<svg xmlns="http://www.w3.org/2000/svg" width="1080" height="1080" viewBox="0 0 1080 1080" fill="none">
  <defs>
    <linearGradient id="logoGrad" x1="0" y1="0" x2="1080" y2="1080">
      <stop offset="0%" stop-color="#00ff88"/>
      <stop offset="50%" stop-color="#00e6ff"/>
      <stop offset="100%" stop-color="#8c64ff"/>
    </linearGradient>
    <radialGradient id="bgGlow" cx="50%" cy="50%" r="50%">
      <stop offset="0%" stop-color="#141824"/>
      <stop offset="100%" stop-color="#0a0c12"/>
    </radialGradient>
  </defs>
  <!-- 배경 -->
  <rect width="1080" height="1080" fill="url(#bgGlow)"/>
  <!-- 은은한 격자 무늬 -->
  <g opacity="0.05" stroke="#00e6ff">
    <line x1="0" y1="270" x2="1080" y2="270" stroke-width="1"/>
    <line x1="0" y1="540" x2="1080" y2="540" stroke-width="1"/>
    <line x1="0" y1="810" x2="1080" y2="810" stroke-width="1"/>
    <line x1="270" y1="0" x2="270" y2="1080" stroke-width="1"/>
    <line x1="540" y1="0" x2="540" y2="1080" stroke-width="1"/>
    <line x1="810" y1="0" x2="810" y2="1080" stroke-width="1"/>
  </g>
  <!-- 로고 (중앙 배치, 크기 18배) -->
  <g transform="translate(252, 180) scale(18)">
    <path d="M16 2L28 9V23L16 30L4 23V9L16 2Z" stroke="url(#logoGrad)" stroke-width="1.5" fill="none"/>
    <path d="M16 6L24 10.5V21.5L16 26L8 21.5V10.5L16 6Z" stroke="url(#logoGrad)" stroke-width="1" fill="none" opacity="0.5"/>
    <circle cx="16" cy="16" r="4" fill="url(#logoGrad)" opacity="0.8"/>
    <circle cx="16" cy="16" r="2" fill="#0a0c12"/>
    <line x1="16" y1="12" x2="16" y2="6" stroke="url(#logoGrad)" stroke-width="1" opacity="0.6"/>
    <line x1="19.5" y1="14" x2="24" y2="10.5" stroke="url(#logoGrad)" stroke-width="1" opacity="0.6"/>
    <line x1="19.5" y1="18" x2="24" y2="21.5" stroke="url(#logoGrad)" stroke-width="1" opacity="0.6"/>
    <line x1="16" y1="20" x2="16" y2="26" stroke="url(#logoGrad)" stroke-width="1" opacity="0.6"/>
    <line x1="12.5" y1="18" x2="8" y2="21.5" stroke="url(#logoGrad)" stroke-width="1" opacity="0.6"/>
    <line x1="12.5" y1="14" x2="8" y2="10.5" stroke="url(#logoGrad)" stroke-width="1" opacity="0.6"/>
  </g>
  <!-- 텍스트 -->
  <text x="540" y="830" text-anchor="middle" font-family="Arial, Helvetica, sans-serif" font-size="80" font-weight="bold" fill="url(#logoGrad)" letter-spacing="12">CORTHEX</text>
  <text x="540" y="900" text-anchor="middle" font-family="Arial, Helvetica, sans-serif" font-size="36" fill="#64748b" letter-spacing="24">H E A D Q U A R T E R S</text>
</svg>
