<svg xmlns="http://www.w3.org/2000/svg" width="1200" height="630" viewBox="0 0 1200 630" fill="none">
  <defs>
    <linearGradient id="logoGrad" x1="0" y1="0" x2="1200" y2="630">
      <stop offset="0%" stop-color="#00ff88"/>
      <stop offset="50%" stop-color="#00e6ff"/>
      <stop offset="100%" stop-color="#8c64ff"/>
    </linearGradient>
    <linearGradient id="textGrad" x1="0" y1="0" x2="800" y2="0">
      <stop offset="0%" stop-color="#00ff88"/>
      <stop offset="50%" stop-color="#00e6ff"/>
      <stop offset="100%" stop-color="#8c64ff"/>
    </linearGradient>
    <radialGradient id="bgGlow" cx="30%" cy="50%" r="60%">
      <stop offset="0%" stop-color="#141824"/>
      <stop offset="100%" stop-color="#0a0c12"/>
    </radialGradient>
  </defs>
  <!-- 배경 -->
  <rect width="1200" height="630" fill="url(#bgGlow)"/>
  <!-- 격자 -->
  <g opacity="0.04" stroke="#00e6ff">
    <line x1="0" y1="157" x2="1200" y2="157"/>
    <line x1="0" y1="315" x2="1200" y2="315"/>
    <line x1="0" y1="472" x2="1200" y2="472"/>
    <line x1="300" y1="0" x2="300" y2="630"/>
    <line x1="600" y1="0" x2="600" y2="630"/>
    <line x1="900" y1="0" x2="900" y2="630"/>
  </g>
  <!-- 로고 (왼쪽) -->
  <g transform="translate(60, 75) scale(15)">
    <path d="M16 2L28 9V23L16 30L4 23V9L16 2Z" stroke="url(#logoGrad)" stroke-width="1.5" fill="none"/>
    <path d="M16 6L24 10.5V21.5L16 26L8 21.5V10.5L16 6Z" stroke="url(#logoGrad)" stroke-width="1" fill="none" opacity="0.5"/>
    <circle cx="16" cy="16" r="4" fill="url(#logoGrad)" opacity="0.8"/>
    <circle cx="16" cy="16" r="2" fill="#0a0c12"/>
    <line x1="16" y1="12" x2="16" y2="6" stroke="url(#logoGrad)" stroke-width="1" opacity="0.6"/>
    <line x1="19.5" y1="14" x2="24" y2="10.5" stroke="url(#logoGrad)" stroke-width="1" opacity="0.6"/>
    <line x1="19.5" y1="18" x2="24" y2="21.5" stroke="url(#logoGrad)" stroke-width="1" opacity="0.6"/>
    <line x1="16" y1="20" x2="16" y2="26" stroke="url(#logoGrad)" stroke-width="1" opacity="0.6"/>
    <line x1="12.5" y1="18" x2="8" y2="21.5" stroke="url(#logoGrad)" stroke-width="1" opacity="0.6"/>
    <line x1="12.5" y1="14" x2="8" y2="10.5" stroke="url(#logoGrad)" stroke-width="1" opacity="0.6"/>
  </g>
  <!-- 텍스트 (오른쪽) -->
  <text x="590" y="280" font-family="Arial, Helvetica, sans-serif" font-size="90" font-weight="bold" fill="url(#textGrad)" letter-spacing="10">CORTHEX</text>
  <text x="590" y="355" font-family="Arial, Helvetica, sans-serif" font-size="28" fill="#64748b" letter-spacing="12">H E A D Q U A R T E R S</text>
  <!-- 하단 구분선 + 태그라인 -->
  <line x1="590" y1="390" x2="1100" y2="390" stroke="url(#logoGrad)" stroke-width="1" opacity="0.3"/>
  <text x="590" y="430" font-family="Arial, Helvetica, sans-serif" font-size="22" fill="#94a3b8">AI-Powered Corporate Intelligence Platform</text>
</svg>
