<svg xmlns="http://www.w3.org/2000/svg" width="512" height="512" viewBox="0 0 32 32" fill="none">
  <defs>
    <linearGradient id="logoGrad" x1="0" y1="0" x2="32" y2="32">
      <stop offset="0%" stop-color="#00cc6e"/>
      <stop offset="50%" stop-color="#00b8cc"/>
      <stop offset="100%" stop-color="#7050cc"/>
    </linearGradient>
  </defs>
  <rect width="32" height="32" rx="4" fill="#ffffff"/>
  <path d="M16 2L28 9V23L16 30L4 23V9L16 2Z" stroke="url(#logoGrad)" stroke-width="1.5" fill="none"/>
  <path d="M16 6L24 10.5V21.5L16 26L8 21.5V10.5L16 6Z" stroke="url(#logoGrad)" stroke-width="1" fill="none" opacity="0.5"/>
  <circle cx="16" cy="16" r="4" fill="url(#logoGrad)" opacity="0.8"/>
  <circle cx="16" cy="16" r="2" fill="#ffffff"/>
  <line x1="16" y1="12" x2="16" y2="6" stroke="url(#logoGrad)" stroke-width="1" opacity="0.6"/>
  <line x1="19.5" y1="14" x2="24" y2="10.5" stroke="url(#logoGrad)" stroke-width="1" opacity="0.6"/>
  <line x1="19.5" y1="18" x2="24" y2="21.5" stroke="url(#logoGrad)" stroke-width="1" opacity="0.6"/>
  <line x1="16" y1="20" x2="16" y2="26" stroke="url(#logoGrad)" stroke-width="1" opacity="0.6"/>
  <line x1="12.5" y1="18" x2="8" y2="21.5" stroke="url(#logoGrad)" stroke-width="1" opacity="0.6"/>
  <line x1="12.5" y1="14" x2="8" y2="10.5" stroke="url(#logoGrad)" stroke-width="1" opacity="0.6"/>
</svg>
